PathFileType	4	(X/Y/Z)	24_coords_data.trc
DataRate	CameraRate	NumFrames	NumMarkers	Units	OrigDataRate	OrigDataStartFrame	OrigNumFrames
30.0	30.0	7	21	m	30.0	71	80
Frame#	Time	THUMB_TIP	THUMB_IP	THUMB_MCP	THUMB_CMC	INDEX_TIP	INDEX_DIP	INDEX_PIP	INDEX_MCP	MIDDLE_TIP	MIDDLE_DIP	MIDDLE_PIP	MIDDLE_MCP	RING_TIP	RING_DIP	RING_PIP	RING_MCP	PINKY_TIP	PINKY_DIP	PINKY_PIP	PINKY_MCP	WRIST
X1	Y1	Z1	X2	Y2	Z2	X3	Y3	Z3	X4	Y4	Z4	X5	Y5	Z5	X6	Y6	Z6	X7	Y7	Z7	X8	Y8	Z8	X9	Y9	Z9	X10	Y10	Z10	X11	Y11	Z11	X12	Y12	Z12	X13	Y13	Z13	X14	Y14	Z14	X15	Y15	Z15	X16	Y16	Z16	X17	Y17	Z17	X18	Y18	Z18	X19	Y19	Z19	X20	Y20	Z20	X21	Y21	Z21
70	2.3333333333333335	-0.031560199737548825	-0.06919270324707032	0.8736090087890624	-0.034310901641845706	-0.050634201049804685	0.8966309814453125	-0.04026129913330078	-0.03326369857788086	0.9237999877929688	-0.04802389907836914	-0.004359879970550537	0.9469940185546875	-0.0072078900337219235	-0.007284480094909668	0.8040020141601563	-0.014813400268554688	-0.007413380146026612	0.8270960083007812	-0.024813400268554688	-0.006743889808654785	0.8487930297851562	-0.042592300415039065	-0.004299489974975586	0.8866300048828125	-0.007013339996337891	0.028616600036621094	0.7967479858398437	-0.01658250045776367	0.024254899978637695	0.820447021484375	-0.029741600036621095	0.021124700546264648	0.8461680297851563	-0.04677030181884766	0.018538299560546874	0.8871740112304688	-0.011818200111389161	0.05028110122680664	0.8079569702148437	-0.019745399475097656	0.046386699676513675	0.8318079833984375	-0.030000799179077147	0.042388099670410156	0.8563909912109375	-0.043157100677490234	0.036828300476074216	0.8934429931640625	-0.018402700424194337	0.07240440368652344	0.839385986328125	-0.02315800094604492	0.06710050201416015	0.8600759887695313	-0.02912969970703125	0.061775798797607424	0.8767670288085937	-0.03887459945678711	0.05312829971313476	0.9036920166015625	-0.07543990325927734	0.019357799530029297	0.9700889892578125
71	2.3666666666666667	-0.030898799896240236	-0.06868270111083985	0.8729829711914062	-0.033839698791503905	-0.050265399932861325	0.8962169799804688	-0.03996500015258789	-0.03311249923706055	0.9234609985351563	-0.04791139984130859	-0.004382060050964355	0.9467999877929687	-0.0065016899108886715	-0.006554460048675537	0.8040889892578125	-0.014199600219726563	-0.0067949299812316896	0.8272559814453125	-0.02442300033569336	-0.0062421998977661135	0.8487210083007812	-0.04234809875488281	-0.004079339981079101	0.8864290161132813	-0.006398489952087402	0.029674999237060545	0.7968489990234375	-0.016096599578857423	0.025131900787353514	0.8205460205078124	-0.02939889907836914	0.021733400344848632	0.8460640258789063	-0.046661701202392575	0.018812299728393555	0.88710302734375	-0.011126199722290038	0.0509541015625	0.8081240234375	-0.01921229934692383	0.046910598754882814	0.832	-0.029657699584960937	0.0427322998046875	0.8564509887695313	-0.042866199493408204	0.036999099731445315	0.8934710083007813	-0.017392799377441405	0.07270050048828125	0.8398499755859375	-0.02244580078125	0.06732009887695313	0.860280029296875	-0.028533399581909178	0.061926101684570314	0.8770009765625	-0.038586799621582034	0.053171798706054686	0.9037919921875	-0.07532810211181641	0.01922050094604492	0.9700330200195313
72	2.4	-0.029902299880981444	-0.06859429931640625	0.8732379760742187	-0.033147300720214844	-0.05019609832763672	0.8962940063476562	-0.03945909881591797	-0.032982101440429686	0.9234840087890624	-0.04765660095214844	-0.0042967300415039066	0.9469010009765625	-0.006837590217590332	-0.00672426986694336	0.8037960205078125	-0.014368800163269043	-0.006953649997711182	0.8267990112304687	-0.02436400032043457	-0.006400609970092773	0.8484829711914063	-0.0421526985168457	-0.004164760112762451	0.886333984375	-0.006979919910430908	0.02947610092163086	0.7965750122070312	-0.01647879981994629	0.024941200256347655	0.82014599609375	-0.02963529968261719	0.021554899215698243	0.8458079833984375	-0.04668040084838867	0.01876689910888672	0.88706298828125	-0.0116274995803833	0.05069269943237305	0.8076649780273437	-0.019627500534057617	0.04670849990844726	0.8316320190429688	-0.029925800323486327	0.04261199951171875	0.8561329956054687	-0.04310480117797852	0.036975299835205075	0.8933909912109375	-0.017963199615478515	0.07266899871826171	0.8396950073242188	-0.022825899124145507	0.06731900024414063	0.8597670288085938	-0.0288174991607666	0.061854400634765626	0.8765430297851563	-0.03888349914550781	0.05314929962158203	0.903458984375	-0.07528839874267577	0.019183399200439454	0.969843017578125
73	2.433333333333333	-0.029585899353027342	-0.06895570373535156	0.8733250122070313	-0.03292950057983399	-0.05048889923095703	0.8964019775390625	-0.039333099365234374	-0.033144500732421874	0.9234760131835937	-0.047608200073242186	-0.004341800212860108	0.9466669921875	-0.006604780197143554	-0.007027900218963623	0.8037579956054688	-0.014181500434875488	-0.0072514300346374514	0.82689501953125	-0.02432229995727539	-0.0066931300163269045	0.8483599853515625	-0.042143901824951174	-0.004419010162353515	0.8861179809570312	-0.006815209865570069	0.028915800094604493	0.7963419799804687	-0.016339899063110352	0.02445199966430664	0.8200040283203125	-0.029581499099731446	0.02118370056152344	0.8455609741210938	-0.046587501525878906	0.018450899124145506	0.8867269897460938	-0.011508899688720703	0.050188800811767575	0.8075969848632812	-0.019563100814819337	0.04628260040283203	0.831469970703125	-0.029867700576782227	0.04227030181884766	0.85593798828125	-0.04304719924926758	0.03670449829101562	0.893093994140625	-0.01782270050048828	0.07232520294189453	0.8391339721679687	-0.022795099258422852	0.06699250030517578	0.8594979858398437	-0.028889999389648438	0.06166809844970703	0.8763159790039062	-0.03878129959106445	0.053044200897216794	0.903260009765625	-0.07528119659423828	0.01915920066833496	0.9698400268554688
74	2.466666666666667	-0.028511899948120117	-0.06893049621582031	0.8730670166015625	-0.03208860015869141	-0.050494701385498046	0.8961699829101563	-0.038803199768066406	-0.03321549987792969	0.9232490234375	-0.04730339813232422	-0.004510910034179688	0.946447998046875	-0.005539519786834717	-0.006608729839324951	0.8032890014648437	-0.013372099876403809	-0.006927249908447265	0.8267160034179688	-0.023656000137329103	-0.006509880065917969	0.8483090209960937	-0.04169699859619141	-0.004490349769592285	0.8859409790039062	-0.006175580024719238	0.02920639991760254	0.796239013671875	-0.01578030014038086	0.024680099487304687	0.8198729858398438	-0.02909709930419922	0.021340700149536134	0.8453900146484375	-0.046279701232910156	0.018372400283813477	0.8865910034179687	-0.010765299797058106	0.0504734001159668	0.8075590209960938	-0.019005300521850586	0.04647579956054688	0.8314130249023437	-0.029512100219726563	0.04235950088500977	0.8558170166015625	-0.04276470184326172	0.03660599899291992	0.8929760131835938	-0.01722130012512207	0.07252690124511718	0.8391170043945313	-0.022382900238037108	0.06707450103759766	0.8595440063476563	-0.028517000198364256	0.06166210174560547	0.8763629760742188	-0.03847589874267578	0.052875598907470706	0.90322900390625	-0.07512539672851562	0.018868099212646483	0.9695479736328125
75	2.5	-0.02724340057373047	-0.0689822998046875	0.8733820190429687	-0.03118880081176758	-0.050531501770019534	0.8962169799804688	-0.03809519958496094	-0.03326890182495117	0.923260986328125	-0.046783500671386716	-0.004559889793395996	0.94639697265625	-0.00489434003829956	-0.0066113100051879885	0.8032780151367187	-0.01281599998474121	-0.00698652982711792	0.8267269897460937	-0.023212699890136718	-0.006600389957427979	0.8480289916992187	-0.04123320007324219	-0.004552480220794678	0.8857020263671875	-0.005584060192108154	0.029320100784301757	0.796239990234375	-0.015418299674987793	0.024776399612426756	0.8198870239257813	-0.028895299911499025	0.021367000579833983	0.845385009765625	-0.04591310119628906	0.018233499526977538	0.8862919921875	-0.01020810031890869	0.05050740051269531	0.8075859985351562	-0.01861870002746582	0.046428001403808594	0.8313250122070313	-0.029347900390625	0.04225360107421875	0.8555989990234375	-0.042480499267578124	0.03650790023803711	0.89277099609375	-0.016774499893188476	0.0726530990600586	0.8390239868164062	-0.02201880073547363	0.06715110015869141	0.8593380126953125	-0.028254899978637695	0.061680801391601564	0.8760490112304687	-0.03826390075683594	0.05277140045166016	0.9029970092773437	-0.07472190093994141	0.01874760055541992	0.9694979858398437
76	2.533333333333333	-0.02684880065917969	-0.06944930267333985	0.8737680053710938	-0.03082029914855957	-0.05086360168457031	0.8965469970703125	-0.03784329986572266	-0.03346530151367187	0.9234459838867187	-0.0465974006652832	-0.00459867000579834	0.9463400268554687	-0.004421410083770752	-0.007254650115966797	0.8037210083007813	-0.012500300407409667	-0.00757519006729126	0.8270809936523438	-0.022976100921630858	-0.007099440097808838	0.8480399780273438	-0.041115001678466795	-0.004874050140380859	0.8857379760742188	-0.005180260181427002	0.02856730079650879	0.7962230224609375	-0.015095800399780273	0.024175500869750975	0.8199390258789062	-0.028710399627685547	0.020831600189208984	0.8452969970703125	-0.04588710021972656	0.01791659927368164	0.8862670288085938	-0.009759960174560546	0.049777099609375	0.80747900390625	-0.01824839973449707	0.04585609817504883	0.8310369873046874	-0.029109899520874023	0.04181219863891601	0.855468017578125	-0.0423135986328125	0.03620220184326172	0.8923590087890625	-0.016466400146484376	0.07210810089111327	0.8387869873046875	-0.021737499237060545	0.06673110198974609	0.8591179809570313	-0.02794770050048828	0.061318000793457034	0.8758699951171875	-0.038086200714111326	0.052541500091552736	0.9026719970703125	-0.07459999847412109	0.018709100723266602	0.9694660034179687
